<?xml version="1.0" standalone="no"?>
<!DOCTYPE svg PUBLIC "-//W3C//DTD SVG 20010904//EN"
 "http://www.w3.org/TR/2001/REC-SVG-20010904/DTD/svg10.dtd">
<svg version="1.0" xmlns="http://www.w3.org/2000/svg"
 width="1024.000000pt" height="1024.000000pt" viewBox="0 0 1024.000000 1024.000000"
 preserveAspectRatio="xMidYMid meet">

<g transform="translate(0.000000,1024.000000) scale(0.100000,-0.100000)"
fill="#000000" stroke="none">
<path d="M4905 9040 c-407 -43 -770 -171 -1090 -385 -282 -188 -510 -424 -694
-720 -176 -282 -293 -626 -330 -967 -16 -141 -13 -399 4 -535 44 -334 163
-672 330 -943 187 -300 451 -566 753 -757 213 -134 500 -253 752 -312 675
-156 1391 6 1957 443 281 217 511 500 668 821 110 225 173 424 217 680 32 188
31 534 -1 715 -78 441 -230 787 -483 1100 -372 461 -883 748 -1508 846 -113
17 -462 26 -575 14z m754 -1133 c120 -80 136 -246 31 -341 -21 -19 -58 -40
-82 -47 -37 -9 -110 -8 -144 3 -5 2 -114 -106 -241 -239 l-232 -242 14 -35
c19 -44 19 -117 1 -159 -17 -43 -76 -93 -125 -108 -121 -36 -250 60 -251 187
0 39 -3 43 -37 57 -21 9 -76 34 -123 56 l-84 40 -31 -23 c-45 -34 -99 -48
-169 -44 l-63 3 -195 -183 -195 -182 5 -73 c4 -61 1 -80 -17 -114 -37 -74
-109 -110 -204 -100 -176 16 -240 252 -97 356 53 38 98 47 166 32 l54 -12 195
188 c139 134 193 192 189 203 -17 38 -16 137 1 171 53 104 148 147 257 115 82
-24 148 -106 148 -184 0 -26 7 -31 78 -62 42 -18 105 -48 140 -67 l62 -33 31
22 c22 17 46 23 87 25 l56 1 237 248 237 247 -14 33 c-30 71 -11 169 44 228
68 72 190 87 271 33z m914 -278 c104 -29 242 -99 318 -162 166 -138 299 -403
299 -600 l0 -57 -397 2 -398 3 -3 424 -2 423 55 -7 c31 -3 88 -15 128 -26z
m-283 -509 c0 -385 1 -400 19 -410 13 -6 154 -10 390 -10 l371 0 0 -31 c0 -17
-9 -67 -21 -111 -108 -426 -515 -673 -939 -571 -272 65 -488 280 -566 564 -14
48 -18 99 -18 204 0 130 3 147 32 235 40 121 90 206 172 293 135 145 325 234
503 236 l57 1 0 -400z m-1210 -1140 l0 -560 -215 0 -215 0 0 560 0 560 215 0
215 0 0 -560z m-660 -105 l0 -455 -210 0 -210 0 0 455 0 455 210 0 210 0 0
-455z m-645 -175 l0 -280 -207 0 -208 0 0 280 0 280 208 0 207 0 0 -280z"/>
<path d="M6920 3959 c-187 -32 -299 -160 -317 -365 -17 -204 76 -383 233 -444
50 -20 77 -24 184 -24 114 -1 130 1 180 25 31 14 72 40 92 58 39 34 98 140 98
176 0 22 -1 22 -201 81 -12 3 -18 -4 -22 -23 -9 -39 -41 -89 -71 -108 -66 -44
-178 -19 -212 47 -22 41 -31 213 -15 275 33 121 180 159 260 68 17 -20 31 -43
31 -51 0 -10 6 -14 18 -10 9 2 61 14 114 26 l97 22 -10 27 c-48 126 -138 197
-279 220 -74 12 -103 12 -180 0z"/>
<path d="M7825 3964 c-139 -22 -246 -99 -302 -219 -26 -57 -28 -68 -28 -200 0
-132 2 -143 27 -198 67 -142 171 -208 351 -222 232 -19 404 94 446 293 15 72
14 206 -3 267 -47 176 -174 270 -376 279 -47 3 -98 2 -115 0z m184 -221 c84
-62 95 -292 19 -378 -84 -96 -243 -53 -278 75 -17 64 -8 210 16 251 49 83 166
108 243 52z"/>
<path d="M2088 3943 l-118 -4 0 -259 c0 -340 11 -393 103 -478 60 -55 101 -70
218 -83 217 -24 351 31 427 174 l27 52 3 303 3 302 -125 0 -126 0 0 -271 c0
-230 -2 -276 -16 -305 -21 -45 -60 -64 -128 -64 -66 0 -110 31 -126 88 -5 21
-10 150 -10 295 0 141 -3 256 -7 255 -5 -1 -61 -4 -125 -5z"/>
<path d="M2916 3941 c-3 -4 -3 -189 1 -410 l6 -401 98 0 99 0 2 303 3 302 68
-265 c38 -146 73 -282 78 -302 l10 -38 94 0 94 0 10 38 c5 20 37 145 71 277
33 132 65 249 70 260 5 13 9 -91 9 -277 l1 -298 106 0 c105 0 106 0 100 23 -3
12 -6 196 -6 410 l0 387 -163 0 -164 0 -63 -245 c-35 -135 -64 -244 -65 -243
-2 2 -31 112 -65 246 l-63 242 -163 0 c-90 0 -165 -4 -168 -9z"/>
<path d="M3990 3540 l0 -412 278 5 c152 3 294 9 315 15 120 32 191 157 158
278 -15 57 -46 93 -104 119 l-49 23 30 16 c17 9 44 33 59 53 25 32 28 45 28
109 0 66 -3 76 -31 111 -17 21 -51 49 -75 63 -44 25 -46 25 -326 28 l-283 3 0
-411z m456 216 c15 -21 19 -74 6 -92 -15 -24 -54 -34 -126 -34 l-76 0 0 76 0
76 91 -4 c76 -2 93 -6 105 -22z m20 -309 c20 -17 27 -33 27 -57 0 -24 -7 -40
-27 -57 -24 -21 -37 -23 -122 -23 l-94 0 0 80 0 80 94 0 c85 0 98 -2 122 -23z"/>
<path d="M4880 3540 l0 -410 130 0 130 0 0 165 0 165 29 0 c46 0 74 -34 157
-188 l76 -142 271 2 271 3 20 68 19 67 143 0 143 0 16 -57 c9 -32 18 -64 20
-70 3 -10 39 -13 135 -13 71 0 130 3 130 7 0 4 -68 188 -152 410 l-152 404
-140 -3 -139 -3 -143 -385 c-79 -212 -147 -393 -151 -403 -6 -13 -23 12 -72
105 -73 140 -110 192 -153 214 l-30 16 48 22 c122 57 169 193 108 315 -32 64
-78 96 -158 110 -33 6 -171 11 -308 11 l-248 0 0 -410z m460 222 c25 -20 31
-82 10 -107 -18 -21 -76 -35 -147 -35 l-63 0 0 80 0 80 89 0 c70 0 93 -4 111
-18z m870 -304 c0 -5 -39 -8 -86 -8 -65 0 -85 3 -82 13 3 6 22 71 44 143 l39
130 42 -135 c23 -75 43 -139 43 -143z"/>
<path d="M6687 2590 c-171 -27 -285 -137 -316 -306 -31 -164 6 -317 100 -419
79 -86 195 -122 355 -112 141 8 238 68 294 179 48 96 46 99 -67 133 -54 15
-103 30 -108 32 -6 2 -18 -19 -28 -46 -29 -82 -98 -122 -181 -107 -46 9 -91
53 -105 102 -18 66 -14 222 8 270 46 101 178 121 250 39 17 -20 31 -43 31 -51
0 -10 6 -14 18 -10 9 2 61 14 114 26 l97 21 -11 30 c-17 50 -70 121 -116 156
-73 55 -213 81 -335 63z"/>
<path d="M7502 2590 c-153 -23 -257 -138 -237 -266 17 -115 96 -168 359 -239
63 -17 106 -52 106 -84 0 -12 -13 -35 -29 -53 -25 -28 -35 -32 -77 -32 -82 1
-144 50 -144 115 0 21 -1 21 -122 14 -68 -4 -124 -8 -125 -9 -2 -2 4 -29 12
-61 35 -132 121 -199 282 -218 262 -32 442 78 443 271 0 149 -73 214 -309 273
-131 34 -161 49 -161 84 0 33 36 55 90 55 55 0 87 -20 107 -67 l14 -35 117 7
c64 4 118 8 120 10 6 6 -30 102 -51 134 -57 86 -216 127 -395 101z"/>
<path d="M2340 2170 l0 -410 105 0 105 0 1 293 1 292 75 -293 76 -293 95 3 95
3 76 298 76 298 3 -301 2 -300 105 0 105 0 -2 408 -3 407 -165 3 -165 2 -54
-212 c-30 -117 -59 -229 -64 -248 -9 -32 -14 -19 -67 185 -31 121 -60 232 -63
248 l-7 27 -165 0 -165 0 0 -410z"/>
<path d="M3410 2292 c0 -159 3 -344 7 -410 l6 -122 339 0 338 0 0 95 0 95
-215 0 -215 0 0 80 0 80 195 0 195 0 0 80 0 80 -195 0 -195 0 0 65 0 65 210 0
210 0 0 90 0 90 -340 0 -340 0 0 -288z"/>
<path d="M4180 2480 l0 -100 130 0 130 0 0 -310 0 -310 125 0 125 0 0 310 0
310 130 0 130 0 0 100 0 100 -385 0 -385 0 0 -100z"/>
<path d="M5060 2193 c0 -213 3 -398 6 -410 6 -22 10 -23 130 -23 l124 0 0 165
0 165 29 0 c47 0 72 -30 156 -184 l79 -146 144 0 144 0 -67 128 c-77 147 -105
187 -152 214 l-34 20 48 23 c96 44 139 122 130 233 -6 82 -41 135 -112 171
-49 26 -51 26 -337 29 l-288 4 0 -389z m458 200 c47 -40 32 -109 -28 -130 -19
-7 -65 -12 -102 -12 l-68 -1 0 80 0 80 89 0 c70 0 93 -4 109 -17z"/>
<path d="M5960 2170 l0 -410 125 0 125 0 0 410 0 410 -125 0 -125 0 0 -410z"/>
</g>
</svg>
